# File created by Blade
# Date/Time:  Thu Sep 25 18:48:06 2014
# Frame Rate: 120.000 fps
#------------------------------------------------------
:FULLY-SPECIFIED
:DEGREES
1718
root 0.829240 32.879345 2.883335 5.235802 -6.110838 -0.397027
Spine -18.154703 -1.954631 -3.558055
Head 28.869472 3.009214 13.853498
LeftShoulder 6.123489 31.585170 4.414147
LeftArm 136.049653 59.175836 45.039007
LeftForeArm 33.147351 -0.000000 119.082169
LeftHand -1.997696 -0.000000 -12.521898
LeftHandThumb1 -26.253704 0.000000 33.147579
RightShoulder -19.367072 20.161864 -44.923745
RightArm 107.678360 38.479345 85.961789
RightForeArm 35.881920 -0.000000 147.578357
RightHand 9.045643 -0.000000 -1.595305
RightHandThumb1 -24.326973 -0.000000 -32.862282
LeftUpLeg 5.353502 13.883507 4.769687
LeftLeg -3.239952 -0.000000 0.000000
LeftFoot -9.200865 3.760540 -15.939132
LeftToeBase 11.364875 -0.000000 -0.000000
RightUpLeg 1.808480 -4.665144 -5.926951
RightLeg 0.057187 -0.000000 -0.000000
RightFoot -6.613170 -2.515089 5.448818
RightToeBase 0.505954 -0.000000 -0.000000
1719
root 0.838109 32.879997 2.894916 5.218969 -6.276985 -0.402011
Spine -18.241360 -1.831328 -3.519457
Head 28.633814 3.366092 13.966883
LeftShoulder 6.091640 31.455589 4.474013
LeftArm 136.246705 59.121065 45.214155
LeftForeArm 33.049951 -0.000000 119.101345
LeftHand -1.906156 -0.000000 -12.008727
LeftHandThumb1 -26.253704 0.000000 33.147579
RightShoulder -19.276588 19.972821 -44.666717
RightArm 108.023232 38.372552 85.679261
RightForeArm 35.931810 0.000000 147.627624
RightHand 9.131591 0.000000 -1.067007
RightHandThumb1 -24.326973 -0.000000 -32.862282
LeftUpLeg 5.416526 13.927282 4.752916
LeftLeg -3.230480 -0.000000 0.000000
LeftFoot -9.219093 3.851701 -16.079390
LeftToeBase 11.145923 -0.000000 -0.000000
RightUpLeg 1.801934 -4.621093 -5.950655
RightLeg 0.069535 -0.000000 -0.000000
RightFoot -6.573100 -2.457264 5.355884
RightToeBase 0.414503 -0.000000 -0.000000
1720
root 0.847533 32.880561 2.907016 5.206618 -6.438706 -0.394608
Spine -18.332966 -1.713838 -3.489172
Head 28.431286 3.741009 14.176796
LeftShoulder 6.074334 31.379510 4.536733
LeftArm 136.351143 59.051533 45.263341
LeftForeArm 32.967369 -0.000000 119.111492
LeftHand -1.810224 -0.000000 -11.686729
LeftHandThumb1 -26.253704 0.000000 33.147579
RightShoulder -19.216164 19.766244 -44.415045
RightArm 108.369727 38.256958 85.381913
RightForeArm 36.050885 -0.000000 147.698963
RightHand 9.176045 0.000000 -0.260578
RightHandThumb1 -24.326973 -0.000000 -32.862282
LeftUpLeg 5.474405 14.013070 4.722853
LeftLeg -3.222508 -0.000000 0.000000
LeftFoot -9.268199 3.902075 -16.036871
LeftToeBase 11.295749 -0.000000 -0.000000
RightUpLeg 1.785745 -4.618949 -5.990049
RightLeg 0.094953 -0.000000 -0.000000
RightFoot -6.550023 -2.328282 5.310054
RightToeBase 0.395751 -0.000000 -0.000000
1721
root 0.856741 32.880338 2.920873 5.176757 -6.581476 -0.390688
Spine -18.409344 -1.639307 -3.440039
Head 28.216889 4.141527 14.328468
LeftShoulder 6.042019 31.350084 4.587049
LeftArm 136.329449 59.008105 45.168630
LeftForeArm 32.908283 -0.000000 119.145902
LeftHand -1.715373 -0.000000 -11.635277
LeftHandThumb1 -26.253704 0.000000 33.147579
RightShoulder -19.137537 19.557381 -44.115838
RightArm 108.717378 38.163324 84.980515
RightForeArm 36.043385 -0.000000 147.741836
RightHand 9.398337 -0.000000 0.392295
RightHandThumb1 -24.326973 -0.000000 -32.862282
LeftUpLeg 5.555643 14.097688 4.704038
LeftLeg -3.225954 -0.000000 0.000000
LeftFoot -9.277771 3.944646 -16.138483
LeftToeBase 11.227958 -0.000000 -0.000000
RightUpLeg 1.791038 -4.660404 -6.026453
RightLeg 0.126817 -0.000000 -0.000000
RightFoot -6.550162 -2.184727 5.271004
RightToeBase 0.391148 -0.000000 -0.000000
1722
root 0.866341 32.880060 2.934499 5.151809 -6.726152 -0.396475
Spine -18.472291 -1.564860 -3.359290
Head 28.018989 4.582196 14.481296
LeftShoulder 5.987634 31.322142 4.596017
LeftArm 136.401700 58.934072 45.205548
LeftForeArm 32.900487 -0.000000 119.185418
LeftHand -1.747573 -0.000000 -11.248941
LeftHandThumb1 -26.253704 0.000000 33.147579
RightShoulder -19.110946 19.419683 -43.921569
RightArm 108.928993 38.080848 84.494707
RightForeArm 35.760238 0.000000 147.853302
RightHand 9.435727 -0.000000 0.996117
RightHandThumb1 -24.326973 -0.000000 -32.862282
LeftUpLeg 5.643559 14.202314 4.692823
LeftLeg -3.252588 -0.000000 0.000000
LeftFoot -9.321253 3.978595 -16.080147
LeftToeBase 11.346183 -0.000000 -0.000000
RightUpLeg 1.785763 -4.714846 -6.054936
RightLeg 0.171509 -0.000000 -0.000000
RightFoot -6.553538 -2.014006 5.249500
RightToeBase 0.414033 -0.000000 -0.000000
1723
root 0.878545 32.878493 2.949900 5.128263 -6.857561 -0.390114
Spine -18.528355 -1.511634 -3.274280
Head 27.823331 5.063702 14.646340
LeftShoulder 5.922609 31.286506 4.593968
LeftArm 136.467930 58.894748 45.179961
LeftForeArm 32.943623 -0.000000 119.239939
LeftHand -1.889592 0.000000 -11.204932
LeftHandThumb1 -26.253704 0.000000 33.147579
RightShoulder -19.113955 19.243891 -43.753800
RightArm 109.236358 37.982417 84.179430
RightForeArm 35.480606 -0.000000 147.971236
RightHand 9.499465 0.000000 1.569034
RightHandThumb1 -24.326973 -0.000000 -32.862282
LeftUpLeg 5.727258 14.315293 4.668459
LeftLeg -3.276720 -0.000000 0.000000
LeftFoot -9.330842 4.002816 -16.135843
LeftToeBase 11.245482 -0.000000 -0.000000
RightUpLeg 1.777509 -4.819674 -6.098503
RightLeg 0.221072 -0.000000 -0.000000
RightFoot -6.531149 -1.777572 5.160152
RightToeBase 0.323361 -0.000000 -0.000000
